# xmcd
#
# Track frame offsets:
#	150
#	15075
#	28457
#
# Disc length: 682 seconds
#
# Revision: 0
# Processed by: cddbd v1.5.2PL0 Copyright (c) Steve Scherf et al.
# Submitted via: audiograbber 1.83.01
#
DISCID=1802a803
DTITLE=Tearsrunrings - 3
DYEAR=1900
DGENRE=
TTITLE0=The World Disappears
TTITLE1=Eight Hours
TTITLE2=A Question And An Anser
EXTD=
EXTT0=
EXTT1=
EXTT2=
PLAYORDER=
